<svg width="260" height="260" viewBox="0 0 260 260" fill="none" xmlns="http://www.w3.org/2000/svg">
<rect x="2" y="2" width="256" height="256" rx="8" fill="#05122E"/>
<path d="M42.46 214L66.38 39.2H91.22L115.37 214H92.14L88.69 182.49H68.91L65.46 214H42.46ZM70.29 161.33H87.31L79.26 72.55H78.57L70.29 161.33ZM119.122 214V187.32H140.282V214H119.122ZM152.028 39.2H182.388C201.708 39.2 214.818 49.55 214.818 69.79V107.28C214.818 124.76 203.088 133.96 183.078 133.96H160.998V214H152.028V39.2ZM160.998 125.68H182.158C199.638 125.68 205.618 117.63 205.618 107.74V71.86C205.618 50.24 190.898 47.48 178.248 47.48H160.998V125.68Z" fill="white"/>
</svg>
