<svg width="745" height="534" viewBox="0 0 745 534" fill="none" xmlns="http://www.w3.org/2000/svg">
<g clip-path="url(#clip0_41_20)">
<path d="M2.97852 327.634L47.2303 4.25504H93.1841L137.861 327.634H94.8861L88.5036 269.34H51.9108L45.5283 327.634H2.97852ZM54.4638 230.194H85.9506L71.0582 65.9523H69.7817L54.4638 230.194ZM197.208 330.612C161.467 330.612 139.341 315.72 139.341 261.256V215.302H181.465V265.936C181.465 276.148 181.89 289.339 197.634 289.339C212.526 289.339 213.377 276.999 213.377 265.936V225.94C213.377 212.324 209.122 196.58 195.932 186.368L173.38 168.923C164.87 161.264 157.637 154.456 152.106 145.52C143.17 131.904 140.192 115.31 140.192 88.9292V67.6543C140.192 14.0415 162.318 0.851074 196.783 0.851074C231.248 0.851074 255.075 13.616 255.075 68.5053V114.885H212.951V67.2288C212.951 58.2933 212.951 41.2734 197.208 41.2734C182.316 41.2734 182.316 56.5913 182.316 67.2288V102.971C182.316 110.63 183.167 117.863 188.698 125.522C194.23 133.606 203.165 141.265 212.951 149.775L237.63 170.199C253.799 183.39 255.501 199.984 255.501 231.045V261.256C255.501 308.486 238.907 330.612 197.208 330.612ZM267.838 327.634V4.25504H310.388V327.634H267.838ZM326.842 327.634V4.25504H369.392L400.879 195.729H402.155L433.642 4.25504H476.617V327.634H437.472V135.308H436.621L412.793 327.634H390.667L366.839 135.308H365.988V327.634H326.842ZM548.378 330.612C512.636 330.612 490.51 316.145 490.51 261.256V68.9308C490.51 14.0415 512.636 0.851074 548.378 0.851074C583.694 0.851074 606.671 13.616 606.671 68.9308V261.256C606.671 316.571 583.694 330.612 548.378 330.612ZM532.634 265.511C532.634 281.68 537.315 289.339 548.803 289.339C559.866 289.339 564.972 281.68 564.972 265.511V66.8033C564.972 42.1244 559.866 35.3164 548.803 35.3164C537.315 35.3164 532.634 42.1244 532.634 66.8033V265.511ZM654.748 327.634L609.645 4.25504H652.195C660.279 82.5467 668.364 161.264 676.448 265.936H677.725C685.384 161.264 693.894 82.5467 701.553 4.25504H744.528L698.574 327.634H654.748Z" fill="#F6F6F6"/>
<path d="M1.91455 370.183H29.9974C48.2938 370.183 59.995 379.544 59.995 398.904V434.008C59.995 451.453 49.3576 460.176 30.8484 460.176H15.3177V531.872H1.91455V370.183ZM15.3177 447.837H29.9974C42.5496 447.837 46.5918 442.092 46.5918 434.221V400.394C46.5918 384.65 36.8054 382.31 27.2317 382.31H15.3177V447.837ZM66.2213 370.183H79.8373V519.533H115.154V531.872H66.2213V370.183ZM113.575 531.872L139.955 370.183H154.635L181.016 531.872H167.4L161.869 495.492H132.722L126.978 531.872H113.575ZM133.573 483.153H161.018L147.614 388.905H146.976L133.573 483.153ZM227.775 370.183V382.523H203.31V531.872H189.907V382.523H165.228V370.183H227.775ZM231.301 531.872V370.183H276.829V382.523H244.916V439.752H273.425V452.092H244.916V531.872H231.301ZM307.06 533.574C289.828 533.574 278.127 526.128 278.127 498.471V402.734C278.127 375.076 289.828 368.481 307.06 368.481C324.08 368.481 336.207 374.864 336.207 402.734V498.471C336.207 526.341 324.08 533.574 307.06 533.574ZM291.317 500.386C291.317 514.002 296.636 520.597 307.273 520.597C317.698 520.597 323.017 514.002 323.017 500.386V401.67C323.017 385.288 317.698 379.544 307.273 379.544C296.636 379.544 291.317 385.288 291.317 401.67V500.386ZM343.085 531.872V370.183H372.445C391.592 370.183 401.166 382.097 401.166 398.904V426.349C401.166 440.603 395.634 447.411 386.699 449.113V449.539C395.847 450.177 400.74 456.559 400.74 467.197V521.873C400.74 527.617 400.953 528.894 402.229 529.958V531.872H389.039C387.975 529.319 387.55 527.405 387.55 513.363V468.048C387.55 460.176 384.784 456.772 376.487 456.772H361.169C357.127 456.772 356.488 458.049 356.488 461.665V531.872H343.085ZM356.488 443.582H376.487C383.082 443.582 387.975 438.901 387.975 429.966V400.394C387.975 394.649 387.124 382.31 370.53 382.31H356.488V443.582ZM407.808 531.872V370.183H421.424L445.039 490.599H445.464L469.292 370.183H482.695V531.872H470.356V414.435H469.93L449.081 531.872H441.422L420.785 414.435H420.36V531.872H407.808Z" fill="#F6F6F6"/>
</g>
<defs>
<clipPath id="clip0_41_20">
<rect width="744.622" height="534" fill="white"/>
</clipPath>
</defs>
</svg>
