<svg width="994" height="179" viewBox="0 0 994 179" fill="none" xmlns="http://www.w3.org/2000/svg">
<path d="M0.46 177L24.38 2.19999H49.22L73.37 177H50.14L46.69 145.49H26.91L23.46 177H0.46ZM28.29 124.33H45.31L37.26 35.55H36.57L28.29 124.33ZM105.45 178.61C86.1296 178.61 74.1696 170.56 74.1696 141.12V116.28H96.9396V143.65C96.9396 149.17 97.1696 156.3 105.68 156.3C113.73 156.3 114.19 149.63 114.19 143.65V122.03C114.19 114.67 111.89 106.16 104.76 100.64L92.5696 91.21C87.9696 87.07 84.0596 83.39 81.0696 78.56C76.2396 71.2 74.6296 62.23 74.6296 47.97V36.47C74.6296 7.48999 86.5896 0.359998 105.22 0.359998C123.85 0.359998 136.73 7.25999 136.73 36.93V62H113.96V36.24C113.96 31.41 113.96 22.21 105.45 22.21C97.3996 22.21 97.3996 30.49 97.3996 36.24V55.56C97.3996 59.7 97.8596 63.61 100.85 67.75C103.84 72.12 108.67 76.26 113.96 80.86L127.3 91.9C136.04 99.03 136.96 108 136.96 124.79V141.12C136.96 166.65 127.99 178.61 105.45 178.61ZM143.628 177V2.19999H166.628V177H143.628ZM175.522 177V2.19999H198.522L215.542 105.7H216.232L233.252 2.19999H256.482V177H235.322V73.04H234.862L221.982 177H210.022L197.142 73.04H196.682V177H175.522ZM295.271 178.61C275.951 178.61 263.991 170.79 263.991 141.12V37.16C263.991 7.48999 275.951 0.359998 295.271 0.359998C314.361 0.359998 326.781 7.25999 326.781 37.16V141.12C326.781 171.02 314.361 178.61 295.271 178.61ZM286.761 143.42C286.761 152.16 289.291 156.3 295.501 156.3C301.481 156.3 304.241 152.16 304.241 143.42V36.01C304.241 22.67 301.481 18.99 295.501 18.99C289.291 18.99 286.761 22.67 286.761 36.01V143.42ZM352.77 177L328.39 2.19999H351.39C355.76 44.52 360.13 87.07 364.5 143.65H365.19C369.33 87.07 373.93 44.52 378.07 2.19999H401.3L376.46 177H352.77ZM396.966 177V150.32H418.126V177H396.966ZM429.872 2.19999H460.232C479.552 2.19999 492.662 12.55 492.662 32.79V70.28C492.662 87.76 480.932 96.96 460.922 96.96H438.842V177H429.872V2.19999ZM438.842 88.68H460.002C477.482 88.68 483.462 80.63 483.462 70.74V34.86C483.462 13.24 468.742 10.48 456.092 10.48H438.842V88.68ZM506.014 2.19999H515.214V168.72H558.914V177H506.014V2.19999ZM562.224 177L593.734 2.19999H604.084L635.134 177H625.934L618.344 132.61H579.244L571.424 177H562.224ZM579.934 124.33H617.654L599.024 14.16H598.564L579.934 124.33ZM690.51 2.19999V10.48H661.3V177H652.1V10.48H622.89V2.19999H690.51ZM700.751 177V2.19999H749.971V10.48H709.951V80.17H746.291V88.45H709.951V177H700.751ZM788.819 178.84C770.419 178.84 757.539 170.79 757.539 140.89V37.39C757.539 7.48999 770.419 0.359998 788.819 0.359998C806.529 0.359998 820.329 7.25999 820.329 37.39V140.89C820.329 171.02 806.529 178.84 788.819 178.84ZM766.279 142.5C766.279 161.36 774.099 170.1 789.049 170.1C803.769 170.1 811.129 161.36 811.129 142.5V36.24C811.129 15.77 803.769 7.95 789.049 7.95C774.099 7.95 766.279 15.77 766.279 36.24V142.5ZM835.292 177V2.19999H866.342C887.502 2.19999 898.082 14.85 898.082 33.25V62.92C898.082 78.33 892.102 85.46 882.442 87.53V87.99C892.102 88.68 897.162 94.66 897.162 106.16V166.19C897.162 172.4 897.392 173.78 898.772 174.93V177H889.802C888.652 174.24 888.192 172.63 888.192 157.45V107.54C888.192 96.96 884.052 92.82 872.782 92.82H850.242C844.952 92.82 844.262 93.97 844.262 97.88V177H835.292ZM844.262 83.85H873.012C881.752 83.85 888.882 77.64 888.882 66.14V34.86C888.882 27.96 887.962 10.48 864.042 10.48H844.262V83.85ZM912.333 177V2.19999H921.533L952.583 149.4H953.043L984.093 2.19999H993.293V177H984.783V35.32H984.323L955.803 177H949.823L921.303 35.32H920.843V177H912.333Z" fill="#05122E"/>
</svg>
